<svg xmlns="http://www.w3.org/2000/svg" version="1.1" xmlns:xlink="http://www.w3.org/1999/xlink" xmlns:svgjs="http://svgjs.dev/svgjs" width="1440" height="560" preserveAspectRatio="none" viewBox="0 0 1440 560"><g mask="url(&quot;#SvgjsMask1162&quot;)" fill="none"><rect width="1440" height="560" x="0" y="0" fill="rgba(20, 85, 47, 1)"></rect><path d="M0,438.653C102.493,443.577,210.671,517.245,300.245,467.19C389.446,417.343,389.983,290.433,431.96,197.269C473.677,104.681,555.859,22.563,546.124,-78.521C536.307,-180.452,452.115,-256.442,381.153,-330.271C313.306,-400.859,240.018,-470.006,145.455,-495.376C51.969,-520.457,-45.78,-499.341,-137.863,-469.519C-227.966,-440.338,-307.92,-391.547,-376.579,-326.308C-450.941,-255.65,-522.902,-178.145,-548.929,-78.924C-576.519,26.256,-574.833,143.108,-525.072,239.792C-476.152,334.841,-382.228,401.342,-282.259,439.204C-192.453,473.216,-95.92,434.045,0,438.653" fill="#104526"></path><path d="M1440 1124.528C1545.4 1128.7930000000001 1639.6109999999999 1065.59 1726.263 1005.434 1810.453 946.9870000000001 1893.666 879.646 1930.5059999999999 784.0070000000001 1966.4299999999998 690.746 1951.201 586.672 1924.684 490.313 1900.424 402.156 1844.8310000000001 330.174 1786.286 259.941 1726.662 188.414 1670.434 105.71699999999998 1581.387 78.481 1492.028 51.14999999999998 1398.689 87.63 1309.033 113.96800000000002 1219.388 140.303 1114.517 154.973 1060.792 231.41500000000002 1007.648 307.03 1057.691 412.03999999999996 1036.343 501.963 1011.828 605.227 899.111 691.841 927.186 794.194 954.735 894.63 1080.695 926.4549999999999 1168.249 982.8530000000001 1255.904 1039.317 1335.818 1120.312 1440 1124.528" fill="#186538"></path></g><defs><mask id="SvgjsMask1162"><rect width="1440" height="560" fill="#ffffff"></rect></mask></defs></svg>